<mxfile host="app.diagrams.net" modified="2021-06-24T08:22:45.268Z" agent="5.0 (Windows NT 6.1; Win64; x64) AppleWebKit/537.36 (KHTML, like Gecko) Chrome/70.0.3538.67 Safari/537.36" etag="C3S-QFQjY0mHhN2DORql" version="14.8.0" type="github" pages="2">
  <diagram id="U86Lgys_D3vdKASg0xVG" name="Page-1">
    <mxGraphModel dx="2031" dy="1133" grid="1" gridSize="10" guides="1" tooltips="1" connect="1" arrows="1" fold="1" page="1" pageScale="1" pageWidth="827" pageHeight="1169" math="0" shadow="0">
      <root>
        <mxCell id="0" />
        <mxCell id="1" parent="0" />
        <mxCell id="EQ-DXS4YAR9umXey1JoQ-1" value="" style="shape=table;html=1;whiteSpace=wrap;startSize=0;container=1;collapsible=0;childLayout=tableLayout;" parent="1" vertex="1">
          <mxGeometry x="140" y="160" width="440" height="480" as="geometry" />
        </mxCell>
        <mxCell id="EQ-DXS4YAR9umXey1JoQ-2" value="" style="shape=partialRectangle;html=1;whiteSpace=wrap;collapsible=0;dropTarget=0;pointerEvents=0;fillColor=none;top=0;left=0;bottom=0;right=0;points=[[0,0.5],[1,0.5]];portConstraint=eastwest;" parent="EQ-DXS4YAR9umXey1JoQ-1" vertex="1">
          <mxGeometry width="440" height="40" as="geometry" />
        </mxCell>
        <mxCell id="EQ-DXS4YAR9umXey1JoQ-3" value="" style="shape=partialRectangle;html=1;whiteSpace=wrap;connectable=0;fillColor=none;top=0;left=0;bottom=0;right=0;overflow=hidden;" parent="EQ-DXS4YAR9umXey1JoQ-2" vertex="1">
          <mxGeometry width="147" height="40" as="geometry" />
        </mxCell>
        <mxCell id="EQ-DXS4YAR9umXey1JoQ-4" value="" style="shape=partialRectangle;html=1;whiteSpace=wrap;connectable=0;fillColor=none;top=0;left=0;bottom=0;right=0;overflow=hidden;" parent="EQ-DXS4YAR9umXey1JoQ-2" vertex="1">
          <mxGeometry x="147" width="146" height="40" as="geometry" />
        </mxCell>
        <mxCell id="EQ-DXS4YAR9umXey1JoQ-5" value="" style="shape=partialRectangle;html=1;whiteSpace=wrap;connectable=0;fillColor=none;top=0;left=0;bottom=0;right=0;overflow=hidden;" parent="EQ-DXS4YAR9umXey1JoQ-2" vertex="1">
          <mxGeometry x="293" width="147" height="40" as="geometry" />
        </mxCell>
        <mxCell id="EQ-DXS4YAR9umXey1JoQ-6" value="" style="shape=partialRectangle;html=1;whiteSpace=wrap;collapsible=0;dropTarget=0;pointerEvents=0;fillColor=none;top=0;left=0;bottom=0;right=0;points=[[0,0.5],[1,0.5]];portConstraint=eastwest;" parent="EQ-DXS4YAR9umXey1JoQ-1" vertex="1">
          <mxGeometry y="40" width="440" height="40" as="geometry" />
        </mxCell>
        <mxCell id="EQ-DXS4YAR9umXey1JoQ-7" value="" style="shape=partialRectangle;html=1;whiteSpace=wrap;connectable=0;fillColor=none;top=0;left=0;bottom=0;right=0;overflow=hidden;" parent="EQ-DXS4YAR9umXey1JoQ-6" vertex="1">
          <mxGeometry width="147" height="40" as="geometry" />
        </mxCell>
        <mxCell id="EQ-DXS4YAR9umXey1JoQ-8" value="" style="shape=partialRectangle;html=1;whiteSpace=wrap;connectable=0;fillColor=none;top=0;left=0;bottom=0;right=0;overflow=hidden;" parent="EQ-DXS4YAR9umXey1JoQ-6" vertex="1">
          <mxGeometry x="147" width="146" height="40" as="geometry" />
        </mxCell>
        <mxCell id="EQ-DXS4YAR9umXey1JoQ-9" value="" style="shape=partialRectangle;html=1;whiteSpace=wrap;connectable=0;fillColor=none;top=0;left=0;bottom=0;right=0;overflow=hidden;" parent="EQ-DXS4YAR9umXey1JoQ-6" vertex="1">
          <mxGeometry x="293" width="147" height="40" as="geometry" />
        </mxCell>
        <mxCell id="EQ-DXS4YAR9umXey1JoQ-22" value="Actor 1" style="swimlane;horizontal=0;points=[[0,0.5],[1,0.5]];portConstraint=eastwest;startSize=40;collapsible=0;recursiveResize=0;expand=0;pointerEvents=0;fontStyle=1" parent="EQ-DXS4YAR9umXey1JoQ-1" vertex="1">
          <mxGeometry y="80" width="440" height="120" as="geometry" />
        </mxCell>
        <mxCell id="EQ-DXS4YAR9umXey1JoQ-23" value="Phase 1" style="swimlane;connectable=0;startSize=40;collapsible=0;recursiveResize=0;expand=0;pointerEvents=0;" parent="EQ-DXS4YAR9umXey1JoQ-22" vertex="1">
          <mxGeometry x="40" width="107" height="120" as="geometry" />
        </mxCell>
        <mxCell id="EQ-DXS4YAR9umXey1JoQ-24" value="Phase 2" style="swimlane;connectable=0;startSize=40;collapsible=0;recursiveResize=0;expand=0;pointerEvents=0;" parent="EQ-DXS4YAR9umXey1JoQ-22" vertex="1">
          <mxGeometry x="147" width="146" height="120" as="geometry" />
        </mxCell>
        <mxCell id="EQ-DXS4YAR9umXey1JoQ-25" value="Phase 3" style="swimlane;connectable=0;startSize=40;collapsible=0;recursiveResize=0;expand=0;pointerEvents=0;" parent="EQ-DXS4YAR9umXey1JoQ-22" vertex="1">
          <mxGeometry x="293" width="147" height="120" as="geometry" />
        </mxCell>
        <mxCell id="EQ-DXS4YAR9umXey1JoQ-18" value="Actor 2" style="swimlane;horizontal=0;points=[[0,0.5],[1,0.5]];portConstraint=eastwest;startSize=40;collapsible=0;recursiveResize=0;expand=0;pointerEvents=0;" parent="EQ-DXS4YAR9umXey1JoQ-1" vertex="1">
          <mxGeometry y="200" width="440" height="120" as="geometry" />
        </mxCell>
        <mxCell id="EQ-DXS4YAR9umXey1JoQ-19" value="" style="swimlane;connectable=0;startSize=0;collapsible=0;recursiveResize=0;expand=0;pointerEvents=0;" parent="EQ-DXS4YAR9umXey1JoQ-18" vertex="1">
          <mxGeometry x="40" width="107" height="120" as="geometry" />
        </mxCell>
        <mxCell id="EQ-DXS4YAR9umXey1JoQ-20" value="" style="swimlane;connectable=0;startSize=0;collapsible=0;recursiveResize=0;expand=0;pointerEvents=0;" parent="EQ-DXS4YAR9umXey1JoQ-18" vertex="1">
          <mxGeometry x="147" width="146" height="120" as="geometry" />
        </mxCell>
        <mxCell id="EQ-DXS4YAR9umXey1JoQ-21" value="" style="swimlane;connectable=0;startSize=0;collapsible=0;recursiveResize=0;expand=0;pointerEvents=0;" parent="EQ-DXS4YAR9umXey1JoQ-18" vertex="1">
          <mxGeometry x="293" width="147" height="120" as="geometry" />
        </mxCell>
        <mxCell id="EQ-DXS4YAR9umXey1JoQ-14" value="Actor 3" style="swimlane;horizontal=0;points=[[0,0.5],[1,0.5]];portConstraint=eastwest;startSize=40;collapsible=0;recursiveResize=0;expand=0;pointerEvents=0;" parent="EQ-DXS4YAR9umXey1JoQ-1" vertex="1">
          <mxGeometry y="320" width="440" height="120" as="geometry" />
        </mxCell>
        <mxCell id="EQ-DXS4YAR9umXey1JoQ-15" value="" style="swimlane;connectable=0;startSize=0;collapsible=0;recursiveResize=0;expand=0;pointerEvents=0;" parent="EQ-DXS4YAR9umXey1JoQ-14" vertex="1">
          <mxGeometry x="40" width="107" height="120" as="geometry" />
        </mxCell>
        <mxCell id="EQ-DXS4YAR9umXey1JoQ-16" value="" style="swimlane;connectable=0;startSize=0;collapsible=0;recursiveResize=0;expand=0;pointerEvents=0;" parent="EQ-DXS4YAR9umXey1JoQ-14" vertex="1">
          <mxGeometry x="147" width="146" height="120" as="geometry" />
        </mxCell>
        <mxCell id="EQ-DXS4YAR9umXey1JoQ-17" value="" style="swimlane;connectable=0;startSize=0;collapsible=0;recursiveResize=0;expand=0;pointerEvents=0;" parent="EQ-DXS4YAR9umXey1JoQ-14" vertex="1">
          <mxGeometry x="293" width="147" height="120" as="geometry" />
        </mxCell>
        <mxCell id="EQ-DXS4YAR9umXey1JoQ-26" value="Table" style="shape=table;startSize=30;container=1;collapsible=0;childLayout=tableLayout;fontStyle=1;align=center;" parent="EQ-DXS4YAR9umXey1JoQ-17" vertex="1">
          <mxGeometry x="117" y="60" width="180" height="150" as="geometry" />
        </mxCell>
        <mxCell id="EQ-DXS4YAR9umXey1JoQ-27" value="" style="shape=partialRectangle;html=1;whiteSpace=wrap;collapsible=0;dropTarget=0;pointerEvents=0;fillColor=none;top=0;left=0;bottom=0;right=0;points=[[0,0.5],[1,0.5]];portConstraint=eastwest;" parent="EQ-DXS4YAR9umXey1JoQ-26" vertex="1">
          <mxGeometry y="30" width="180" height="40" as="geometry" />
        </mxCell>
        <mxCell id="EQ-DXS4YAR9umXey1JoQ-28" value="" style="shape=partialRectangle;html=1;whiteSpace=wrap;connectable=0;fillColor=none;top=0;left=0;bottom=0;right=0;overflow=hidden;" parent="EQ-DXS4YAR9umXey1JoQ-27" vertex="1">
          <mxGeometry width="60" height="40" as="geometry" />
        </mxCell>
        <mxCell id="EQ-DXS4YAR9umXey1JoQ-29" value="" style="shape=partialRectangle;html=1;whiteSpace=wrap;connectable=0;fillColor=none;top=0;left=0;bottom=0;right=0;overflow=hidden;" parent="EQ-DXS4YAR9umXey1JoQ-27" vertex="1">
          <mxGeometry x="60" width="60" height="40" as="geometry" />
        </mxCell>
        <mxCell id="EQ-DXS4YAR9umXey1JoQ-30" value="" style="shape=partialRectangle;html=1;whiteSpace=wrap;connectable=0;fillColor=none;top=0;left=0;bottom=0;right=0;overflow=hidden;" parent="EQ-DXS4YAR9umXey1JoQ-27" vertex="1">
          <mxGeometry x="120" width="60" height="40" as="geometry" />
        </mxCell>
        <mxCell id="EQ-DXS4YAR9umXey1JoQ-31" value="" style="shape=partialRectangle;html=1;whiteSpace=wrap;collapsible=0;dropTarget=0;pointerEvents=0;fillColor=none;top=0;left=0;bottom=0;right=0;points=[[0,0.5],[1,0.5]];portConstraint=eastwest;" parent="EQ-DXS4YAR9umXey1JoQ-26" vertex="1">
          <mxGeometry y="70" width="180" height="40" as="geometry" />
        </mxCell>
        <mxCell id="EQ-DXS4YAR9umXey1JoQ-32" value="" style="shape=partialRectangle;html=1;whiteSpace=wrap;connectable=0;fillColor=none;top=0;left=0;bottom=0;right=0;overflow=hidden;" parent="EQ-DXS4YAR9umXey1JoQ-31" vertex="1">
          <mxGeometry width="60" height="40" as="geometry" />
        </mxCell>
        <mxCell id="EQ-DXS4YAR9umXey1JoQ-33" value="" style="shape=partialRectangle;html=1;whiteSpace=wrap;connectable=0;fillColor=none;top=0;left=0;bottom=0;right=0;overflow=hidden;" parent="EQ-DXS4YAR9umXey1JoQ-31" vertex="1">
          <mxGeometry x="60" width="60" height="40" as="geometry" />
        </mxCell>
        <mxCell id="EQ-DXS4YAR9umXey1JoQ-34" value="" style="shape=partialRectangle;html=1;whiteSpace=wrap;connectable=0;fillColor=none;top=0;left=0;bottom=0;right=0;overflow=hidden;" parent="EQ-DXS4YAR9umXey1JoQ-31" vertex="1">
          <mxGeometry x="120" width="60" height="40" as="geometry" />
        </mxCell>
        <mxCell id="EQ-DXS4YAR9umXey1JoQ-35" value="" style="shape=partialRectangle;html=1;whiteSpace=wrap;collapsible=0;dropTarget=0;pointerEvents=0;fillColor=none;top=0;left=0;bottom=0;right=0;points=[[0,0.5],[1,0.5]];portConstraint=eastwest;" parent="EQ-DXS4YAR9umXey1JoQ-26" vertex="1">
          <mxGeometry y="110" width="180" height="40" as="geometry" />
        </mxCell>
        <mxCell id="EQ-DXS4YAR9umXey1JoQ-36" value="" style="shape=partialRectangle;html=1;whiteSpace=wrap;connectable=0;fillColor=none;top=0;left=0;bottom=0;right=0;overflow=hidden;" parent="EQ-DXS4YAR9umXey1JoQ-35" vertex="1">
          <mxGeometry width="60" height="40" as="geometry" />
        </mxCell>
        <mxCell id="EQ-DXS4YAR9umXey1JoQ-37" value="" style="shape=partialRectangle;html=1;whiteSpace=wrap;connectable=0;fillColor=none;top=0;left=0;bottom=0;right=0;overflow=hidden;" parent="EQ-DXS4YAR9umXey1JoQ-35" vertex="1">
          <mxGeometry x="60" width="60" height="40" as="geometry" />
        </mxCell>
        <mxCell id="EQ-DXS4YAR9umXey1JoQ-38" value="" style="shape=partialRectangle;html=1;whiteSpace=wrap;connectable=0;fillColor=none;top=0;left=0;bottom=0;right=0;overflow=hidden;" parent="EQ-DXS4YAR9umXey1JoQ-35" vertex="1">
          <mxGeometry x="120" width="60" height="40" as="geometry" />
        </mxCell>
        <mxCell id="EQ-DXS4YAR9umXey1JoQ-10" value="" style="shape=partialRectangle;html=1;whiteSpace=wrap;collapsible=0;dropTarget=0;pointerEvents=0;fillColor=none;top=0;left=0;bottom=0;right=0;points=[[0,0.5],[1,0.5]];portConstraint=eastwest;" parent="EQ-DXS4YAR9umXey1JoQ-1" vertex="1">
          <mxGeometry y="440" width="440" height="40" as="geometry" />
        </mxCell>
        <mxCell id="EQ-DXS4YAR9umXey1JoQ-11" value="" style="shape=partialRectangle;html=1;whiteSpace=wrap;connectable=0;fillColor=none;top=0;left=0;bottom=0;right=0;overflow=hidden;" parent="EQ-DXS4YAR9umXey1JoQ-10" vertex="1">
          <mxGeometry width="147" height="40" as="geometry" />
        </mxCell>
        <mxCell id="EQ-DXS4YAR9umXey1JoQ-12" value="" style="shape=partialRectangle;html=1;whiteSpace=wrap;connectable=0;fillColor=none;top=0;left=0;bottom=0;right=0;overflow=hidden;" parent="EQ-DXS4YAR9umXey1JoQ-10" vertex="1">
          <mxGeometry x="147" width="146" height="40" as="geometry" />
        </mxCell>
        <mxCell id="EQ-DXS4YAR9umXey1JoQ-13" value="" style="shape=partialRectangle;html=1;whiteSpace=wrap;connectable=0;fillColor=none;top=0;left=0;bottom=0;right=0;overflow=hidden;" parent="EQ-DXS4YAR9umXey1JoQ-10" vertex="1">
          <mxGeometry x="293" width="147" height="40" as="geometry" />
        </mxCell>
      </root>
    </mxGraphModel>
  </diagram>
  <diagram id="UrFyo_3bsWpffz6HJ2qy" name="Page-2">
    <mxGraphModel dx="1422" dy="793" grid="1" gridSize="10" guides="1" tooltips="1" connect="1" arrows="1" fold="1" page="1" pageScale="1" pageWidth="827" pageHeight="1169" math="0" shadow="0">
      <root>
        <mxCell id="l2BBXe6wLsOYa5JDS1jB-0" />
        <mxCell id="l2BBXe6wLsOYa5JDS1jB-1" parent="l2BBXe6wLsOYa5JDS1jB-0" />
      </root>
    </mxGraphModel>
  </diagram>
</mxfile>
